<svg width="110" height="44" viewBox="0 0 110 44" fill="none" xmlns="http://www.w3.org/2000/svg">
<g clip-path="url(#clip0_239_345)">
<path d="M2.41151 10.8743H9.50795V3.79175C9.50795 2.52818 8.4817 1.50494 7.21526 1.50494C5.94882 1.50494 4.92256 2.52818 4.92256 3.79175V6.30069H2.40787C1.14143 6.30069 0.115173 7.32392 0.115173 8.58749C0.115173 9.85106 1.14143 10.8743 2.40787 10.8743H2.41151Z" fill="#034EA2"/>
<path d="M15.903 13.9283L22.2752 24.1497H22.3189V13.9283H25.4632V29.1639H22.1042L15.7538 18.9643H15.7101V29.1639H12.5658V13.9283H15.903Z" fill="#034EA2"/>
<path d="M27.0397 21.5251C27.0833 20.815 27.2617 20.2251 27.5746 19.7553C27.8876 19.2856 28.2879 18.9105 28.7719 18.6229C29.2559 18.3388 29.8018 18.1349 30.4096 18.0147C31.0137 17.8946 31.6251 17.8327 32.2365 17.8327C32.7933 17.8327 33.3573 17.8727 33.925 17.9492C34.4964 18.0293 35.0168 18.1822 35.4863 18.408C35.9557 18.6374 36.3415 18.9506 36.6399 19.3584C36.9383 19.7626 37.0875 20.3016 37.0875 20.9679V26.7068C37.0875 27.2057 37.1166 27.6827 37.1712 28.1379C37.2294 28.5931 37.3277 28.9353 37.4696 29.1611H34.3909C34.3326 28.99 34.289 28.8152 34.2526 28.6367C34.2162 28.4583 34.1907 28.2762 34.1761 28.0942C33.6921 28.5931 33.1208 28.939 32.4657 29.1393C31.8107 29.3395 31.1411 29.4379 30.4569 29.4379C29.9292 29.4379 29.4379 29.3723 28.983 29.2449C28.5281 29.1174 28.1278 28.9171 27.7857 28.6477C27.4436 28.3782 27.178 28.0359 26.9851 27.6244C26.7922 27.213 26.6976 26.7214 26.6976 26.1533C26.6976 25.527 26.8068 25.0099 27.0288 24.6057C27.2507 24.2015 27.5346 23.8774 27.884 23.6334C28.2333 23.3931 28.6336 23.211 29.0813 23.0909C29.5289 22.9707 29.9838 22.8724 30.4387 22.8032C30.8936 22.7304 31.3448 22.6758 31.7852 22.6321C32.2255 22.5884 32.6186 22.5265 32.9607 22.4391C33.3027 22.3553 33.572 22.2279 33.7722 22.064C33.9724 21.9001 34.0633 21.6634 34.0488 21.3503C34.0488 21.0226 33.9942 20.764 33.8886 20.571C33.7831 20.378 33.6375 20.2287 33.4592 20.1231C33.2809 20.0175 33.0735 19.9447 32.8406 19.9083C32.604 19.8719 32.3529 19.8537 32.08 19.8537C31.4795 19.8537 31.01 19.9811 30.668 20.236C30.3259 20.4909 30.1257 20.9206 30.0675 21.5178H27.0324L27.0397 21.5251ZM34.0524 23.7645C33.925 23.8774 33.7649 23.9685 33.572 24.0304C33.3792 24.0959 33.1717 24.1469 32.9534 24.1906C32.7314 24.2343 32.5021 24.2707 32.2583 24.2962C32.0145 24.3253 31.7743 24.3617 31.5304 24.4018C31.3012 24.4455 31.0792 24.5001 30.8572 24.5729C30.6352 24.6458 30.4423 24.7404 30.2786 24.8606C30.1148 24.9808 29.9838 25.1337 29.8819 25.3194C29.7836 25.5051 29.7327 25.7382 29.7327 26.0222C29.7327 26.3062 29.7836 26.5211 29.8819 26.7068C29.9801 26.8925 30.1184 27.0382 30.2895 27.1438C30.4605 27.2494 30.6607 27.3258 30.8899 27.3695C31.1192 27.4132 31.3521 27.4351 31.5959 27.4351C32.1964 27.4351 32.6586 27.3368 32.9861 27.1365C33.3137 26.9362 33.5575 26.6995 33.714 26.4228C33.8705 26.146 33.9687 25.8656 34.0015 25.5816C34.0379 25.2976 34.0561 25.0682 34.0561 24.897V23.7645H34.0524Z" fill="#034EA2"/>
<path d="M41.929 18.1339V20.184H41.9727C42.1146 19.8417 42.3075 19.5249 42.5513 19.2336C42.7952 18.9423 43.0718 18.6947 43.3847 18.4871C43.6977 18.2795 44.0325 18.1193 44.3891 18.0064C44.7458 17.8936 45.117 17.8353 45.5027 17.8353C45.7029 17.8353 45.9249 17.8717 46.1651 17.9409V20.7594C46.0231 20.7302 45.8521 20.7047 45.6519 20.6829C45.4518 20.661 45.2589 20.6501 45.0733 20.6501C44.5165 20.6501 44.0471 20.7411 43.6613 20.9269C43.2755 21.1126 42.9662 21.3638 42.7297 21.6843C42.4931 22.0047 42.3257 22.3761 42.2275 22.8058C42.1292 23.2319 42.0783 23.6943 42.0783 24.1932V29.1637H39.0432V18.1303H41.929V18.1339Z" fill="#034EA2"/>
<path d="M47.6856 21.5251C47.7293 20.815 47.9076 20.2251 48.2206 19.7553C48.5336 19.2856 48.9339 18.9105 49.4179 18.6229C49.9019 18.3388 50.4478 18.1349 51.0556 18.0147C51.6597 17.8946 52.271 17.8327 52.8824 17.8327C53.4392 17.8327 54.0033 17.8727 54.571 17.9492C55.1424 18.0293 55.6628 18.1822 56.1322 18.408C56.6017 18.6374 56.9874 18.9506 57.2859 19.3584C57.5843 19.7626 57.7335 20.3016 57.7335 20.9679V26.7068C57.7335 27.2057 57.7626 27.6827 57.8172 28.1379C57.8754 28.5931 57.9737 28.9353 58.1156 29.1611H55.0368C54.9786 28.99 54.9349 28.8152 54.8985 28.6367C54.8622 28.4583 54.8367 28.2762 54.8221 28.0942C54.3381 28.5931 53.7668 28.939 53.1117 29.1393C52.4566 29.3395 51.787 29.4379 51.1029 29.4379C50.5752 29.4379 50.0839 29.3723 49.629 29.2449C49.1741 29.1174 48.7738 28.9171 48.4317 28.6477C48.0896 28.3782 47.8239 28.0359 47.6311 27.6244C47.4382 27.213 47.3436 26.7214 47.3436 26.1533C47.3436 25.527 47.4527 25.0099 47.6747 24.6057C47.8967 24.2015 48.1806 23.8774 48.5299 23.6334C48.8793 23.3931 49.2796 23.211 49.7272 23.0909C50.1749 22.9707 50.6298 22.8724 51.0847 22.8032C51.5396 22.7304 51.9908 22.6758 52.4312 22.6321C52.8715 22.5884 53.2645 22.5265 53.6066 22.4391C53.9487 22.3553 54.218 22.2279 54.4182 22.064C54.6183 21.9001 54.7093 21.6634 54.6948 21.3503C54.6948 21.0226 54.6402 20.764 54.5346 20.571C54.4291 20.378 54.2835 20.2287 54.1052 20.1231C53.9269 20.0175 53.7194 19.9447 53.4865 19.9083C53.25 19.8719 52.9989 19.8537 52.7259 19.8537C52.1255 19.8537 51.656 19.9811 51.3139 20.236C50.9718 20.4909 50.7717 20.9206 50.7135 21.5178H47.6784L47.6856 21.5251ZM54.6984 23.7645C54.571 23.8774 54.4109 23.9685 54.218 24.0304C54.0251 24.0959 53.8177 24.1469 53.5994 24.1906C53.3774 24.2343 53.1481 24.2707 52.9043 24.2962C52.6604 24.3253 52.4203 24.3617 52.1764 24.4018C51.9472 24.4455 51.7252 24.5001 51.5032 24.5729C51.2812 24.6458 51.0883 24.7404 50.9245 24.8606C50.7608 24.9808 50.6298 25.1337 50.5279 25.3194C50.4296 25.5051 50.3787 25.7382 50.3787 26.0222C50.3787 26.3062 50.4296 26.5211 50.5279 26.7068C50.6261 26.8925 50.7644 27.0382 50.9355 27.1438C51.1065 27.2494 51.3067 27.3258 51.5359 27.3695C51.7652 27.4132 51.9981 27.4351 52.2419 27.4351C52.8424 27.4351 53.3046 27.3368 53.6321 27.1365C53.9596 26.9362 54.2035 26.6995 54.3599 26.4228C54.5164 26.146 54.6147 25.8656 54.6474 25.5816C54.6838 25.2976 54.702 25.0682 54.702 24.897V23.7645H54.6984Z" fill="#034EA2"/>
<path d="M64.0091 32.4515C63.4232 32.8338 62.6117 33.0268 61.5709 33.0268C61.2579 33.0268 60.9486 33.0159 60.6392 32.994C60.3335 32.9722 60.0242 32.9467 59.7076 32.9176V30.4196C59.9915 30.4487 60.2862 30.4778 60.5847 30.5033C60.8831 30.5324 61.1851 30.5397 61.4835 30.5252C61.8838 30.4815 62.1786 30.3249 62.3715 30.0554C62.5644 29.786 62.659 29.4874 62.659 29.1596C62.659 28.9193 62.6153 28.6899 62.5316 28.475L58.6595 18.1261H61.8875L64.3913 25.6784H64.4349L66.8514 18.1261H69.9956L65.3775 30.5252C65.05 31.4209 64.5951 32.0618 64.0091 32.4442V32.4515Z" fill="#034EA2"/>
<path d="M70.7867 21.5251C70.8303 20.815 71.0087 20.2251 71.3216 19.7553C71.6346 19.2856 72.0349 18.9105 72.5189 18.6229C73.0029 18.3388 73.5488 18.1349 74.1566 18.0147C74.7607 17.8946 75.3721 17.8327 75.9835 17.8327C76.5403 17.8327 77.1043 17.8727 77.672 17.9492C78.2434 18.0293 78.7638 18.1822 79.2333 18.408C79.7027 18.6374 80.0885 18.9506 80.3869 19.3584C80.6853 19.7626 80.8345 20.3016 80.8345 20.9679V26.7068C80.8345 27.2057 80.8636 27.6827 80.9219 28.1379C80.9801 28.5931 81.0783 28.9353 81.2203 29.1611H78.1415C78.0833 28.99 78.0396 28.8152 78.0032 28.6367C77.9668 28.4583 77.9413 28.2762 77.9268 28.0942C77.4428 28.5931 76.8714 28.939 76.2164 29.1393C75.5613 29.3395 74.8917 29.4379 74.2075 29.4379C73.6798 29.4379 73.1885 29.3723 72.7336 29.2449C72.2787 29.1174 71.8784 28.9171 71.5364 28.6477C71.1943 28.3782 70.9286 28.0359 70.7357 27.6244C70.5428 27.213 70.4482 26.7214 70.4482 26.1533C70.4482 25.527 70.5574 25.0099 70.7794 24.6057C71.0014 24.2015 71.2852 23.8774 71.6346 23.6334C71.984 23.3931 72.3843 23.211 72.8319 23.0909C73.2795 22.9707 73.7344 22.8724 74.1893 22.8032C74.6442 22.7304 75.0955 22.6758 75.5358 22.6321C75.9762 22.5884 76.3692 22.5265 76.7113 22.4391C77.0534 22.3553 77.3227 22.2279 77.5228 22.064C77.723 21.9001 77.814 21.6634 77.7994 21.3503C77.7994 21.0226 77.7448 20.764 77.6393 20.571C77.5338 20.378 77.3882 20.2287 77.2099 20.1231C77.0315 20.0175 76.8241 19.9447 76.5912 19.9083C76.3546 19.8719 76.1035 19.8537 75.8306 19.8537C75.2301 19.8537 74.7607 19.9811 74.4186 20.236C74.0765 20.4909 73.8764 20.9206 73.8181 21.5178H70.783L70.7867 21.5251ZM77.7994 23.7645C77.672 23.8774 77.5119 23.9685 77.319 24.0304C77.1262 24.0959 76.9187 24.1469 76.7004 24.1906C76.4784 24.2343 76.2491 24.2707 76.0053 24.2962C75.7615 24.3253 75.5213 24.3617 75.2774 24.4018C75.0482 24.4455 74.8262 24.5001 74.6042 24.5729C74.3822 24.6458 74.1893 24.7404 74.0256 24.8606C73.8618 24.9808 73.7308 25.1337 73.6289 25.3194C73.5306 25.5051 73.4797 25.7382 73.4797 26.0222C73.4797 26.3062 73.5306 26.5211 73.6289 26.7068C73.7271 26.8925 73.8654 27.0382 74.0365 27.1438C74.2075 27.2494 74.4077 27.3258 74.6369 27.3695C74.8662 27.4132 75.0991 27.4351 75.343 27.4351C75.9434 27.4351 76.4056 27.3368 76.7331 27.1365C77.0607 26.9362 77.3045 26.6995 77.461 26.4228C77.6175 26.146 77.7157 25.8656 77.7485 25.5816C77.7849 25.2976 77.8031 25.0682 77.8031 24.897V23.7645H77.7994Z" fill="#034EA2"/>
<path d="M85.6728 18.1339V19.6706H85.7383C86.1241 19.0297 86.6226 18.5636 87.234 18.2723C87.8454 17.981 88.475 17.8353 89.1155 17.8353C89.927 17.8353 90.593 17.9445 91.1134 18.1667C91.6338 18.3888 92.045 18.6947 92.3434 19.0843C92.6419 19.4739 92.8529 19.951 92.973 20.5154C93.0931 21.0762 93.155 21.6988 93.155 22.3834V29.1674H90.1199V22.9369C90.1199 22.0266 89.978 21.3456 89.6905 20.8977C89.4066 20.4498 88.9008 20.2241 88.1729 20.2241C87.3468 20.2241 86.7464 20.468 86.3752 20.9596C86.004 21.4512 85.8184 22.2596 85.8184 23.3812V29.1637H82.7833V18.1303H85.6691L85.6728 18.1339Z" fill="#034EA2"/>
<path d="M94.7318 21.5251C94.7755 20.815 94.9538 20.2251 95.2668 19.7553C95.5798 19.2856 95.9801 18.9105 96.4641 18.6229C96.9481 18.3388 97.494 18.1349 98.1017 18.0147C98.7058 17.8946 99.3172 17.8327 99.9286 17.8327C100.485 17.8327 101.049 17.8727 101.617 17.9492C102.189 18.0293 102.709 18.1822 103.178 18.408C103.648 18.6374 104.034 18.9506 104.332 19.3584C104.63 19.7626 104.78 20.3016 104.78 20.9679V26.7068C104.78 27.2057 104.809 27.6827 104.867 28.1379C104.925 28.5931 105.023 28.9353 105.165 29.1611H102.087C102.028 28.99 101.985 28.8152 101.948 28.6367C101.912 28.4583 101.886 28.2762 101.872 28.0942C101.388 28.5931 100.817 28.939 100.162 29.1393C99.5065 29.3395 98.8368 29.4379 98.1527 29.4379C97.625 29.4379 97.1337 29.3723 96.6788 29.2449C96.2239 29.1174 95.8236 28.9171 95.4815 28.6477C95.1394 28.3782 94.8737 28.0359 94.6809 27.6244C94.488 27.213 94.3934 26.7214 94.3934 26.1533C94.3934 25.527 94.5025 25.0099 94.7245 24.6057C94.9465 24.2015 95.2304 23.8774 95.5798 23.6334C95.9291 23.3931 96.3294 23.211 96.7771 23.0909C97.2247 22.9707 97.6796 22.8724 98.1345 22.8032C98.5894 22.7304 99.0406 22.6758 99.481 22.6321C99.9213 22.5884 100.314 22.5265 100.656 22.4391C100.999 22.3553 101.268 22.2279 101.468 22.064C101.668 21.9001 101.759 21.6634 101.745 21.3503C101.745 21.0226 101.69 20.764 101.584 20.571C101.479 20.378 101.333 20.2287 101.155 20.1231C100.977 20.0175 100.769 19.9447 100.536 19.9083C100.3 19.8719 100.049 19.8537 99.7758 19.8537C99.1753 19.8537 98.7058 19.9811 98.3637 20.236C98.0217 20.4909 97.8215 20.9206 97.7633 21.5178H94.7282L94.7318 21.5251ZM101.748 23.7645C101.621 23.8774 101.461 23.9685 101.268 24.0304C101.075 24.0959 100.868 24.1469 100.649 24.1906C100.427 24.2343 100.198 24.2707 99.9541 24.2962C99.7102 24.3253 99.4701 24.3617 99.2262 24.4018C98.997 24.4455 98.775 24.5001 98.553 24.5729C98.331 24.6458 98.1381 24.7404 97.9743 24.8606C97.8106 24.9808 97.6796 25.1337 97.5777 25.3194C97.4794 25.5051 97.4285 25.7382 97.4285 26.0222C97.4285 26.3062 97.4794 26.5211 97.5777 26.7068C97.6759 26.8925 97.8142 27.0382 97.9853 27.1438C98.1563 27.2494 98.3565 27.3258 98.5857 27.3695C98.815 27.4132 99.0479 27.4351 99.2917 27.4351C99.8922 27.4351 100.354 27.3368 100.682 27.1365C101.009 26.9362 101.253 26.6995 101.41 26.4228C101.566 26.146 101.665 25.8656 101.697 25.5816C101.734 25.2976 101.752 25.0682 101.752 24.897V23.7645H101.748Z" fill="#034EA2"/>
<path d="M12.5589 3.79175V10.8743H19.6554C20.9218 10.8743 21.9481 9.85106 21.9481 8.58749C21.9481 7.32392 20.9218 6.30069 19.6554 6.30069H17.1407V3.79175C17.1407 2.52818 16.1144 1.50494 14.848 1.50494C13.5816 1.50494 12.5553 2.52818 12.5553 3.79175H12.5589Z" fill="#ED1C24"/>
<path d="M9.5043 21.0004V13.9178H2.40786C1.14141 13.9178 0.115158 14.941 0.115158 16.2046C0.115158 17.4682 1.14141 18.4914 2.40786 18.4914H4.92254V21.0004C4.92254 22.2639 5.9488 23.2872 7.21524 23.2872C8.48168 23.2872 9.50794 22.2639 9.50794 21.0004H9.5043Z" fill="#ED1C24"/>
<path d="M14.5819 33.7464V37.2531H18.2903V33.7464H20.3064V42.89H18.2903V38.9464H14.5819V42.89H12.5658V33.7464H14.5819Z" fill="#ED1C24"/>
<path d="M23.5784 41.3026C23.8513 41.5684 24.2444 41.6995 24.7575 41.6995C25.125 41.6995 25.4417 41.6084 25.7073 41.4227C25.973 41.2407 26.1367 41.044 26.195 40.8401H27.7999C27.5415 41.6339 27.1484 42.202 26.6208 42.5443C26.0894 42.8866 25.4489 43.0577 24.6956 43.0577C24.1752 43.0577 23.7021 42.974 23.2836 42.8065C22.8651 42.639 22.5085 42.4023 22.2173 42.0964C21.9262 41.7905 21.7006 41.4227 21.5441 40.9967C21.3839 40.5706 21.3075 40.1009 21.3075 39.5875C21.3075 39.074 21.3876 38.6298 21.5514 38.2037C21.7151 37.7777 21.9444 37.4063 22.2428 37.0967C22.5412 36.7836 22.8979 36.5396 23.3127 36.3612C23.7276 36.1827 24.1861 36.0917 24.692 36.0917C25.2561 36.0917 25.7474 36.201 26.1659 36.4194C26.5844 36.6379 26.9301 36.9292 27.1994 37.297C27.4687 37.6648 27.6616 38.0836 27.7817 38.5533C27.9018 39.023 27.9454 39.5146 27.909 40.0244H23.1235C23.149 40.6143 23.2982 41.0404 23.5711 41.3062L23.5784 41.3026ZM25.6382 37.8214C25.4198 37.581 25.0887 37.4645 24.6447 37.4645C24.3535 37.4645 24.1134 37.5155 23.9205 37.6102C23.7276 37.7085 23.5747 37.8287 23.4583 37.9743C23.3418 38.12 23.2618 38.2729 23.2145 38.4368C23.1672 38.6006 23.138 38.7427 23.1308 38.8737H26.0967C26.0094 38.4113 25.8602 38.0617 25.6418 37.825L25.6382 37.8214Z" fill="#ED1C24"/>
<path d="M28.9223 38.3057C28.9478 37.8796 29.0533 37.5264 29.2426 37.2424C29.4318 36.962 29.672 36.7362 29.9595 36.5651C30.2506 36.3939 30.5782 36.2738 30.9421 36.2009C31.306 36.1281 31.6699 36.0917 32.0375 36.0917C32.3723 36.0917 32.7107 36.1172 33.0528 36.1609C33.3949 36.2082 33.7079 36.2993 33.9881 36.4376C34.272 36.576 34.5012 36.7654 34.6795 37.0057C34.8579 37.2497 34.9488 37.5701 34.9488 37.9707V41.4155C34.9488 41.714 34.967 42.0017 34.9998 42.2748C35.0325 42.5479 35.0944 42.7518 35.1781 42.8902H33.3294C33.2966 42.7883 33.2675 42.6827 33.2457 42.5771C33.2239 42.4715 33.2093 42.3622 33.202 42.2493C32.9109 42.5479 32.5688 42.7555 32.1758 42.8757C31.7827 42.9958 31.3788 43.0541 30.9712 43.0541C30.6546 43.0541 30.3598 43.014 30.0869 42.9376C29.8139 42.8611 29.5737 42.7409 29.3699 42.5807C29.1662 42.4168 29.006 42.2129 28.8896 41.9653C28.7731 41.7177 28.7149 41.4227 28.7149 41.0804C28.7149 40.7054 28.7804 40.3959 28.915 40.1519C29.0461 39.9079 29.2171 39.7149 29.4282 39.5693C29.6392 39.4236 29.8758 39.3144 30.1451 39.2415C30.4144 39.1687 30.6873 39.1104 30.9603 39.0704C31.2332 39.0267 31.5025 38.9939 31.7682 38.9684C32.0338 38.9429 32.2704 38.9029 32.4742 38.8519C32.678 38.8009 32.8417 38.7244 32.9618 38.6261C33.0819 38.5278 33.1365 38.3858 33.1292 38.1964C33.1292 37.9998 33.0965 37.8432 33.0346 37.7303C32.9691 37.6138 32.8854 37.5264 32.7762 37.4609C32.6707 37.3953 32.547 37.3553 32.405 37.3334C32.2631 37.3116 32.1103 37.3007 31.9501 37.3007C31.5899 37.3007 31.3096 37.3771 31.1022 37.5301C30.8984 37.683 30.7783 37.9415 30.7419 38.2984H28.9187L28.9223 38.3057ZM33.1329 39.6494C33.0565 39.7186 32.9582 39.7695 32.8454 39.8096C32.7289 39.8496 32.6052 39.8788 32.4742 39.9043C32.3432 39.9298 32.2012 39.9516 32.0557 39.9698C31.9101 39.988 31.7645 40.0099 31.619 40.0354C31.4807 40.0608 31.346 40.0936 31.215 40.1373C31.084 40.181 30.9676 40.2393 30.8693 40.3085C30.771 40.3813 30.691 40.4723 30.6328 40.5852C30.5745 40.6945 30.5418 40.8365 30.5418 41.0076C30.5418 41.1788 30.5709 41.3062 30.6328 41.4191C30.691 41.532 30.7747 41.6194 30.8766 41.6813C30.9785 41.7468 31.0986 41.7905 31.2369 41.816C31.3751 41.8415 31.5134 41.8561 31.659 41.8561C32.0193 41.8561 32.2959 41.7978 32.4924 41.6776C32.6889 41.5575 32.8345 41.4155 32.9291 41.2479C33.0237 41.0804 33.0819 40.9129 33.1038 40.7418C33.1256 40.5706 33.1365 40.4359 33.1365 40.3303V39.653L33.1329 39.6494Z" fill="#ED1C24"/>
<path d="M37.977 33.7464V42.89H36.1538V33.7464H37.977Z" fill="#ED1C24"/>
<path d="M43.2101 36.2698V37.486H41.8745V40.7633C41.8745 41.0692 41.9255 41.2767 42.0274 41.3787C42.1293 41.4806 42.3367 41.5316 42.6424 41.5316C42.7443 41.5316 42.8425 41.528 42.9372 41.5207C43.0318 41.5134 43.1228 41.4988 43.2065 41.4806V42.8899C43.0536 42.9154 42.8826 42.9336 42.6933 42.9408C42.5041 42.9481 42.3221 42.9554 42.1402 42.9554C41.8563 42.9554 41.5907 42.9372 41.3396 42.8972C41.0884 42.8571 40.8665 42.7843 40.6736 42.6714C40.4807 42.5621 40.3279 42.4019 40.2187 42.198C40.1059 41.9941 40.0513 41.7246 40.0513 41.3932V37.4896H38.9486V36.2734H40.0513V34.2888H41.8745V36.2734H43.2101V36.2698Z" fill="#ED1C24"/>
<path d="M46.0148 33.7464V37.1912H46.0548C46.2841 36.8089 46.5825 36.5285 46.9391 36.3537C47.2994 36.1789 47.6488 36.0915 47.9908 36.0915C48.4785 36.0915 48.8788 36.1571 49.1918 36.2918C49.5048 36.4229 49.7486 36.6086 49.9305 36.8416C50.1089 37.0747 50.2362 37.3624 50.309 37.701C50.3818 38.0397 50.4182 38.4111 50.4182 38.8226V42.8937H48.5949V39.1539C48.5949 38.6077 48.5076 38.1999 48.3366 37.9304C48.1655 37.661 47.8635 37.5262 47.4268 37.5262C46.9318 37.5262 46.5716 37.6719 46.3496 37.9668C46.1276 38.2618 46.0148 38.7461 46.0148 39.4198V42.89H44.1915V33.7464H46.0148Z" fill="#ED1C24"/>
</g>
<defs>
<clipPath id="clip0_239_345">
<rect width="106" height="44" fill="white"/>
</clipPath>
</defs>
</svg>
