<svg width="163" height="34" viewBox="0 0 163 34" fill="none" xmlns="http://www.w3.org/2000/svg">
<path d="M143.034 0H149.466L159.258 26.736C160.506 30.192 160.506 30.192 162.33 32.256L161.658 33.6H153.786L153.114 32.256C154.554 30.24 154.554 30.24 152.154 22.992C151.29 20.4 150.426 19.104 148.698 19.104H143.61L140.73 21.792C138.81 23.616 138.138 25.344 137.562 27.168C136.794 29.664 136.794 29.664 139.722 32.256L139.05 33.6H132.906L132.234 32.256C135.882 29.568 135.882 29.568 137.178 26.112L144.378 7.008C145.002 5.424 145.434 4.32 142.362 1.344L143.034 0ZM141.114 20.688L143.37 18.528H148.554C150.282 18.528 150.042 17.04 149.754 16.224L146.49 6.96C145.674 4.608 145.29 5.904 144.906 7.008L140.394 19.296C139.53 21.6 139.29 22.416 141.114 20.688Z" fill="#202020"/>
<path d="M131.798 0L132.47 1.344C129.446 3.504 128.534 4.752 127.766 6.24L123.062 15.36C121.91 17.568 121.814 17.568 121.814 22.416V28.176C121.814 30.144 121.814 30.144 123.782 32.304L123.158 33.6H115.19L114.566 32.304C116.534 30.144 116.534 30.144 116.534 28.176V22.416C116.534 18.816 116.486 18.768 114.902 15.84L109.382 5.52L109.238 5.232C106.79 0.72 104.006 0.576001 99.8302 0.576001C96.9502 0.576001 96.9502 3.456 96.9502 5.424V28.176C96.9502 30 96.9502 30 98.9182 32.304L98.2462 33.6H90.3742L89.7022 32.304C91.6702 29.952 91.6702 29.952 91.6702 28.176V5.424C91.6702 3.456 91.6702 0.576001 88.7902 0.576001C86.6782 0.576001 84.9502 1.104 82.9342 7.104H81.0142L79.9102 0.864L80.5342 0H114.422L115.094 1.344C113.702 3.024 113.99 2.832 115.094 4.896L120.662 15.408C121.478 16.944 121.622 16.944 122.63 14.976L127.238 6C127.862 4.8 128.15 3.456 125.174 1.344L125.846 0H131.798Z" fill="#202020"/>
<path d="M74.5822 28.176C74.5822 30.144 74.5822 30.144 76.5502 32.256L75.8782 33.6H68.2462L67.5742 32.256C69.5422 30.144 69.5422 30.144 69.5422 28.176V5.424C69.5422 3.456 69.5422 3.456 67.5742 1.344L68.2462 0H75.8782L76.5502 1.344C74.5822 3.456 74.5822 3.456 74.5822 5.424V28.176Z" fill="#202020"/>
<path d="M43.121 0C58.145 0 63.713 7.824 63.713 16.56C63.713 27.264 56.609 33.6 44.657 33.6H32.417L31.793 32.256C33.713 30.192 33.713 30.192 33.713 28.368V5.232C33.713 3.408 33.713 3.408 31.793 1.296L32.417 0H43.121ZM57.713 16.608C57.713 8.832 53.057 0.576001 43.121 0.576001C38.993 0.576001 38.993 3.408 38.993 5.232V28.368C38.993 30.192 39.041 33.024 42.113 33.024C50.897 33.024 57.713 29.952 57.713 16.608Z" fill="#202020"/>
<path d="M10.8 0H17.232L27.024 26.736C28.272 30.192 28.272 30.192 30.096 32.256L29.424 33.6H21.552L20.88 32.256C22.32 30.24 22.32 30.24 19.92 22.992C19.056 20.4 18.192 19.104 16.464 19.104H11.376L8.496 21.792C6.576 23.616 5.904 25.344 5.328 27.168C4.56 29.664 4.56 29.664 7.488 32.256L6.816 33.6H0.672L0 32.256C3.648 29.568 3.648 29.568 4.944 26.112L12.144 7.008C12.768 5.424 13.2 4.32 10.128 1.344L10.8 0ZM8.88 20.688L11.136 18.528H16.32C18.048 18.528 17.808 17.04 17.52 16.224L14.256 6.96C13.44 4.608 13.056 5.904 12.672 7.008L8.16 19.296C7.296 21.6 7.056 22.416 8.88 20.688Z" fill="#202020"/>
</svg>
