<svg width="84" height="31" viewBox="0 0 84 31" fill="none" xmlns="http://www.w3.org/2000/svg">
<path d="M58.0391 30.618V0H71.5631C74.2791 0 76.5191 0.434 78.2831 1.302C80.0471 2.142 81.3491 3.332 82.1891 4.872C83.0571 6.384 83.4911 8.176 83.4911 10.248C83.4911 12.46 82.9871 14.336 81.9791 15.876C80.9991 17.416 79.6131 18.578 77.8211 19.362C76.0291 20.146 73.9291 20.538 71.5211 20.538H65.3471V14.574H70.8491C72.4731 14.574 73.6491 14.196 74.3771 13.44C75.1051 12.656 75.4691 11.676 75.4691 10.5C75.4691 9.044 75.0351 8.022 74.1671 7.434C73.2991 6.846 72.1931 6.552 70.8491 6.552H64.9271L65.9771 5.502V30.618H58.0391Z" fill="#202020"/>
<path d="M23.2891 30.618L33.6211 0H44.7091L55.0831 30.618H46.7671L40.4671 9.828L39.3331 5.922H39.0391L37.9051 9.828L31.6051 30.618H23.2891ZM32.7811 24.864L34.5871 18.858H43.7431L45.5491 24.864H32.7811Z" fill="#202020"/>
<path d="M0 30.618V0H7.938V24.99L6.762 23.73H21.294V30.618H0Z" fill="#202020"/>
</svg>
