<svg width="165" height="72" viewBox="0 0 165 72" fill="none" xmlns="http://www.w3.org/2000/svg">
<path d="M143.034 0H149.466L159.258 26.736C160.506 30.192 160.506 30.192 162.33 32.256L161.658 33.6H153.786L153.114 32.256C154.554 30.24 154.554 30.24 152.154 22.992C151.29 20.4 150.426 19.104 148.698 19.104H143.61L140.73 21.792C138.81 23.616 138.138 25.344 137.562 27.168C136.794 29.664 136.794 29.664 139.722 32.256L139.05 33.6H132.906L132.234 32.256C135.882 29.568 135.882 29.568 137.178 26.112L144.378 7.008C145.002 5.424 145.434 4.32 142.362 1.344L143.034 0ZM141.114 20.688L143.37 18.528H148.554C150.282 18.528 150.042 17.04 149.754 16.224L146.49 6.96C145.674 4.608 145.29 5.904 144.906 7.008L140.394 19.296C139.53 21.6 139.29 22.416 141.114 20.688Z" fill="#202020"/>
<path d="M131.798 0L132.47 1.344C129.446 3.504 128.534 4.752 127.766 6.24L123.062 15.36C121.91 17.568 121.814 17.568 121.814 22.416V28.176C121.814 30.144 121.814 30.144 123.782 32.304L123.158 33.6H115.19L114.566 32.304C116.534 30.144 116.534 30.144 116.534 28.176V22.416C116.534 18.816 116.486 18.768 114.902 15.84L109.382 5.52L109.238 5.232C106.79 0.72 104.006 0.576001 99.8302 0.576001C96.9502 0.576001 96.9502 3.456 96.9502 5.424V28.176C96.9502 30 96.9502 30 98.9182 32.304L98.2462 33.6H90.3742L89.7022 32.304C91.6702 29.952 91.6702 29.952 91.6702 28.176V5.424C91.6702 3.456 91.6702 0.576001 88.7902 0.576001C86.6782 0.576001 84.9502 1.104 82.9342 7.104H81.0142L79.9102 0.864L80.5342 0H114.422L115.094 1.344C113.702 3.024 113.99 2.832 115.094 4.896L120.662 15.408C121.478 16.944 121.622 16.944 122.63 14.976L127.238 6C127.862 4.8 128.15 3.456 125.174 1.344L125.846 0H131.798Z" fill="#202020"/>
<path d="M74.5822 28.176C74.5822 30.144 74.5822 30.144 76.5502 32.256L75.8782 33.6H68.2462L67.5742 32.256C69.5422 30.144 69.5422 30.144 69.5422 28.176V5.424C69.5422 3.456 69.5422 3.456 67.5742 1.344L68.2462 0H75.8782L76.5502 1.344C74.5822 3.456 74.5822 3.456 74.5822 5.424V28.176Z" fill="#202020"/>
<path d="M43.121 0C58.145 0 63.713 7.824 63.713 16.56C63.713 27.264 56.609 33.6 44.657 33.6H32.417L31.793 32.256C33.713 30.192 33.713 30.192 33.713 28.368V5.232C33.713 3.408 33.713 3.408 31.793 1.296L32.417 0H43.121ZM57.713 16.608C57.713 8.832 53.057 0.576001 43.121 0.576001C38.993 0.576001 38.993 3.408 38.993 5.232V28.368C38.993 30.192 39.041 33.024 42.113 33.024C50.897 33.024 57.713 29.952 57.713 16.608Z" fill="#202020"/>
<path d="M10.8 0H17.232L27.024 26.736C28.272 30.192 28.272 30.192 30.096 32.256L29.424 33.6H21.552L20.88 32.256C22.32 30.24 22.32 30.24 19.92 22.992C19.056 20.4 18.192 19.104 16.464 19.104H11.376L8.496 21.792C6.576 23.616 5.904 25.344 5.328 27.168C4.56 29.664 4.56 29.664 7.488 32.256L6.816 33.6H0.672L0 32.256C3.648 29.568 3.648 29.568 4.944 26.112L12.144 7.008C12.768 5.424 13.2 4.32 10.128 1.344L10.8 0ZM8.88 20.688L11.136 18.528H16.32C18.048 18.528 17.808 17.04 17.52 16.224L14.256 6.96C13.44 4.608 13.056 5.904 12.672 7.008L8.16 19.296C7.296 21.6 7.056 22.416 8.88 20.688Z" fill="#202020"/>
<path d="M132.438 71.5994L142.77 40.9814H153.857L164.232 71.5994H155.915L149.616 50.8094L148.482 46.9034H148.188L147.053 50.8094L140.754 71.5994H132.438ZM141.93 65.8454L143.736 59.8394H152.891L154.698 65.8454H141.93Z" fill="#202020"/>
<path d="M95 71.5994V40.9814H107.264L110.666 53.7494L112.136 60.8894H112.472L113.9 53.7494L117.218 40.9814H129.482V71.5994H121.88V58.5794L122.09 48.3314H121.712L119.486 57.3614L115.622 71.5994H108.986L105.08 57.2354L102.854 48.3314H102.476L102.686 58.6214V71.5994H95Z" fill="#202020"/>
<path d="M63.6641 71.5994V40.9814H80.5481C81.8641 40.9814 83.0541 41.1074 84.1181 41.3594C85.2101 41.5834 86.1761 41.9194 87.0161 42.3674C87.8841 42.8154 88.6121 43.3894 89.2001 44.0894C89.7881 44.7614 90.2221 45.5594 90.5021 46.4834C90.8101 47.3794 90.9641 48.4014 90.9641 49.5494C90.9641 51.4534 90.4461 53.0634 89.4101 54.3794C88.4021 55.6674 87.0441 56.5354 85.3361 56.9834V57.2774C86.4841 57.4734 87.4221 57.8234 88.1501 58.3274C88.9061 58.8314 89.4521 59.4754 89.7881 60.2594C90.1521 61.0434 90.3341 62.0094 90.3341 63.1574V68.1134C90.3341 68.6734 90.3481 69.2474 90.3761 69.8354C90.4321 70.4234 90.5861 71.0114 90.8381 71.5994H82.8161C82.6761 71.2354 82.5641 70.7454 82.4801 70.1294C82.4241 69.5134 82.3961 68.8414 82.3961 68.1134V64.4594C82.3961 63.6754 82.2701 63.0314 82.0181 62.5274C81.7661 61.9954 81.3321 61.5894 80.7161 61.3094C80.1281 61.0014 79.2881 60.8474 78.1961 60.8474H70.9721V54.7574H78.4901C80.0861 54.7574 81.2061 54.3934 81.8501 53.6654C82.5221 52.9374 82.8581 52.0274 82.8581 50.9354C82.8581 50.2634 82.7461 49.7034 82.5221 49.2554C82.3261 48.8074 82.0321 48.4434 81.6401 48.1634C81.2481 47.8834 80.7861 47.6874 80.2541 47.5754C79.7221 47.4354 79.1341 47.3654 78.4901 47.3654H71.6021V71.5994H63.6641Z" fill="#202020"/>
<path d="M36.1406 71.5994V40.9814H59.6606V47.6174H42.4406L44.0786 45.9374V66.6014L42.4406 64.9634H59.7866V71.5994H36.1406ZM42.4406 59.2094V53.0354H57.5606V59.2094H42.4406Z" fill="#202020"/>
<path d="M11.7803 71.5994L0.902344 40.9814H9.72234L15.4343 60.3014L16.9043 65.3414H17.1983L18.6683 60.3434L24.3803 40.9814H33.2003L22.3643 71.5994H11.7803Z" fill="#202020"/>
</svg>
