<svg width="176" height="72" viewBox="0 0 176 72" fill="none" xmlns="http://www.w3.org/2000/svg">
<path d="M143.034 0H149.466L159.258 26.736C160.506 30.192 160.506 30.192 162.33 32.256L161.658 33.6H153.786L153.114 32.256C154.554 30.24 154.554 30.24 152.154 22.992C151.29 20.4 150.426 19.104 148.698 19.104H143.61L140.73 21.792C138.81 23.616 138.138 25.344 137.562 27.168C136.794 29.664 136.794 29.664 139.722 32.256L139.05 33.6H132.906L132.234 32.256C135.882 29.568 135.882 29.568 137.178 26.112L144.378 7.008C145.002 5.424 145.434 4.32 142.362 1.344L143.034 0ZM141.114 20.688L143.37 18.528H148.554C150.282 18.528 150.042 17.04 149.754 16.224L146.49 6.96C145.674 4.608 145.29 5.904 144.906 7.008L140.394 19.296C139.53 21.6 139.29 22.416 141.114 20.688Z" fill="#202020"/>
<path d="M131.798 0L132.47 1.344C129.446 3.504 128.534 4.752 127.766 6.24L123.062 15.36C121.91 17.568 121.814 17.568 121.814 22.416V28.176C121.814 30.144 121.814 30.144 123.782 32.304L123.158 33.6H115.19L114.566 32.304C116.534 30.144 116.534 30.144 116.534 28.176V22.416C116.534 18.816 116.486 18.768 114.902 15.84L109.382 5.52L109.238 5.232C106.79 0.72 104.006 0.576001 99.8302 0.576001C96.9502 0.576001 96.9502 3.456 96.9502 5.424V28.176C96.9502 30 96.9502 30 98.9182 32.304L98.2462 33.6H90.3742L89.7022 32.304C91.6702 29.952 91.6702 29.952 91.6702 28.176V5.424C91.6702 3.456 91.6702 0.576001 88.7902 0.576001C86.6782 0.576001 84.9502 1.104 82.9342 7.104H81.0142L79.9102 0.864L80.5342 0H114.422L115.094 1.344C113.702 3.024 113.99 2.832 115.094 4.896L120.662 15.408C121.478 16.944 121.622 16.944 122.63 14.976L127.238 6C127.862 4.8 128.15 3.456 125.174 1.344L125.846 0H131.798Z" fill="#202020"/>
<path d="M74.5822 28.176C74.5822 30.144 74.5822 30.144 76.5502 32.256L75.8782 33.6H68.2462L67.5742 32.256C69.5422 30.144 69.5422 30.144 69.5422 28.176V5.424C69.5422 3.456 69.5422 3.456 67.5742 1.344L68.2462 0H75.8782L76.5502 1.344C74.5822 3.456 74.5822 3.456 74.5822 5.424V28.176Z" fill="#202020"/>
<path d="M43.121 0C58.145 0 63.713 7.824 63.713 16.56C63.713 27.264 56.609 33.6 44.657 33.6H32.417L31.793 32.256C33.713 30.192 33.713 30.192 33.713 28.368V5.232C33.713 3.408 33.713 3.408 31.793 1.296L32.417 0H43.121ZM57.713 16.608C57.713 8.832 53.057 0.576001 43.121 0.576001C38.993 0.576001 38.993 3.408 38.993 5.232V28.368C38.993 30.192 39.041 33.024 42.113 33.024C50.897 33.024 57.713 29.952 57.713 16.608Z" fill="#202020"/>
<path d="M10.8 0H17.232L27.024 26.736C28.272 30.192 28.272 30.192 30.096 32.256L29.424 33.6H21.552L20.88 32.256C22.32 30.24 22.32 30.24 19.92 22.992C19.056 20.4 18.192 19.104 16.464 19.104H11.376L8.496 21.792C6.576 23.616 5.904 25.344 5.328 27.168C4.56 29.664 4.56 29.664 7.488 32.256L6.816 33.6H0.672L0 32.256C3.648 29.568 3.648 29.568 4.944 26.112L12.144 7.008C12.768 5.424 13.2 4.32 10.128 1.344L10.8 0ZM8.88 20.688L11.136 18.528H16.32C18.048 18.528 17.808 17.04 17.52 16.224L14.256 6.96C13.44 4.608 13.056 5.904 12.672 7.008L8.16 19.296C7.296 21.6 7.056 22.416 8.88 20.688Z" fill="#202020"/>
<path d="M144.25 71.5994L154.918 40.9814H164.704L175.372 71.5994H168.022L161.176 50.1794L159.958 46.2314H159.706L158.488 50.1794L151.642 71.5994H144.25ZM153.07 65.4674L154.666 60.1334H164.998L166.552 65.4674H153.07Z" fill="#202020"/>
<path d="M107.305 71.5994V40.9814H118.183L122.299 54.8834L124.063 62.2334H124.357L126.121 54.8834L130.195 40.9814H141.073V71.5994H134.353V57.9914L134.521 47.4914H134.185L131.623 56.7314L127.171 71.5994H121.249L116.797 56.6894L114.235 47.4914H113.899L114.067 57.9914V71.5994H107.305Z" fill="#202020"/>
<path d="M76.2148 71.5994V40.9814H92.6368C93.9248 40.9814 95.1008 41.0934 96.1648 41.3174C97.2288 41.5414 98.1668 41.8914 98.9788 42.3674C99.8188 42.8154 100.519 43.3894 101.079 44.0894C101.667 44.7614 102.115 45.5454 102.423 46.4414C102.731 47.3374 102.885 48.3454 102.885 49.4654C102.885 51.3694 102.381 52.9794 101.373 54.2954C100.365 55.5834 98.9928 56.4654 97.2568 56.9414V57.1934C98.4048 57.3894 99.3428 57.7394 100.071 58.2434C100.827 58.7474 101.373 59.4054 101.709 60.2174C102.045 61.0014 102.213 61.9674 102.213 63.1154V68.1554C102.213 68.7154 102.227 69.2894 102.255 69.8774C102.311 70.4374 102.465 71.0114 102.717 71.5994H95.6608C95.4928 71.2074 95.3668 70.7174 95.2828 70.1294C95.2268 69.5414 95.1988 68.8834 95.1988 68.1554V64.2914C95.1988 63.4234 95.0588 62.7094 94.7788 62.1494C94.5268 61.5614 94.0788 61.1274 93.4348 60.8474C92.7908 60.5394 91.8668 60.3854 90.6628 60.3854H82.5988V54.9254H90.8308C92.6228 54.9254 93.8828 54.5334 94.6108 53.7494C95.3388 52.9374 95.7028 51.9154 95.7028 50.6834C95.7028 49.9554 95.5908 49.3394 95.3668 48.8354C95.1428 48.3034 94.8068 47.8834 94.3588 47.5754C93.9108 47.2394 93.3928 47.0014 92.8048 46.8614C92.2168 46.7214 91.5588 46.6514 90.8308 46.6514H83.1868V71.5994H76.2148Z" fill="#202020"/>
<path d="M48.8984 71.5994V40.9814H71.9984V46.8614H54.4004L55.8704 45.3494V67.1894L54.4004 65.7194H72.1244V71.5994H48.8984ZM54.4004 58.8314V53.3294H69.9404V58.8314H54.4004Z" fill="#202020"/>
<path d="M25.1564 71.5994L13.9844 40.9814H21.7964L27.8444 60.2174L29.6504 66.0554H29.9864L31.7924 60.2174L37.8404 40.9814H45.6104L34.4804 71.5994H25.1564Z" fill="#202020"/>
</svg>
