<svg width="191" height="73" viewBox="0 0 191 73" fill="none" xmlns="http://www.w3.org/2000/svg">
<path d="M190.332 0.720703L190.956 1.5847L189.852 7.8247H187.932C185.916 1.8247 184.236 1.2967 182.076 1.2967C179.196 1.2967 179.196 4.1767 179.196 6.1447V28.8967C179.196 30.7207 179.196 30.7207 181.164 33.0247L180.492 34.3207H172.62L171.948 33.0247C173.916 30.6727 173.916 30.6727 173.916 28.8967V6.1447C173.916 4.1767 173.916 1.2967 171.036 1.2967C168.924 1.2967 167.196 1.8247 165.18 7.8247H163.26L162.156 1.5847L162.78 0.720703H190.332Z" fill="#202020"/>
<path d="M153.875 16.5127C159.875 29.7127 161.027 31.2967 162.899 32.9767L162.083 34.3207H154.595L153.923 32.9767C155.459 31.2967 155.459 31.1047 148.307 16.4167H147.395C143.843 20.1607 143.843 20.5447 143.843 25.6807V28.8967C143.843 31.0567 143.843 31.0567 145.811 33.0247L145.139 34.3207H137.267L136.595 33.0247C138.563 31.0567 138.563 31.0567 138.563 28.8967V6.2887C138.563 4.4647 138.563 4.4647 136.547 2.11271L137.267 0.720703H148.403C155.363 0.720703 159.923 3.88871 159.923 8.8327C159.923 14.8327 153.875 16.5127 153.875 16.5127ZM149.123 15.8407C153.155 15.8407 154.355 12.7207 154.163 8.78471C153.971 4.6567 151.043 1.2967 147.683 1.2967C143.843 1.2967 143.843 4.4647 143.843 6.2887V17.5687C143.843 19.1047 143.843 19.4407 146.291 16.7047L147.059 15.8407H149.123Z" fill="#202020"/>
<path d="M115.546 0.720703H121.978L131.77 27.4567C133.018 30.9127 133.018 30.9127 134.842 32.9767L134.17 34.3207H126.298L125.626 32.9767C127.066 30.9607 127.066 30.9607 124.666 23.7127C123.802 21.1207 122.938 19.8247 121.21 19.8247H116.122L113.242 22.5127C111.322 24.3367 110.65 26.0647 110.074 27.8887C109.306 30.3847 109.306 30.3847 112.234 32.9767L111.562 34.3207H105.418L104.746 32.9767C108.394 30.2887 108.394 30.2887 109.69 26.8327L116.89 7.7287C117.514 6.1447 117.946 5.0407 114.874 2.0647L115.546 0.720703ZM113.626 21.4087L115.882 19.2487H121.066C122.794 19.2487 122.554 17.7607 122.266 16.9447L119.002 7.68071C118.186 5.3287 117.802 6.6247 117.418 7.7287L112.906 20.0167C112.042 22.3207 111.802 23.1367 113.626 21.4087Z" fill="#202020"/>
<path d="M107.504 0.720703L108.128 1.5847L107.024 7.8247H105.104C103.088 1.8247 101.408 1.2967 99.2481 1.2967C96.3681 1.2967 96.3681 4.1767 96.3681 6.1447V28.8967C96.3681 30.7207 96.3681 30.7207 98.3361 33.0247L97.6641 34.3207H89.7921L89.1201 33.0247C91.0881 30.6727 91.0881 30.6727 91.0881 28.8967V6.1447C91.0881 4.1767 91.0881 1.2967 88.2081 1.2967C86.0961 1.2967 84.3681 1.8247 82.3521 7.8247H80.4321L79.3281 1.5847L79.9521 0.720703H107.504Z" fill="#202020"/>
<path d="M77.4232 21.456C79.0073 26.832 76.1273 35.04 67.1513 35.04C59.5193 35.04 56.3033 30.768 56.3033 30.768L54.0473 18.384C50.7833 0.576002 43.0073 1.296 37.8233 1.296C35.2793 1.296 35.2792 3.696 35.2792 5.664V16.608C35.2792 19.056 35.1353 20.016 37.0553 17.856L38.7833 15.888H40.9913C42.8153 15.888 42.8152 15.888 45.1672 10.32L46.5593 10.944V21.168L45.1672 21.792C42.8152 16.464 42.8153 16.464 40.9913 16.464H39.0233C35.2793 20.832 35.2792 21.072 35.2792 26.208V28.896C35.2792 30.864 35.2793 33.744 38.3033 33.744C41.7593 33.744 47.3753 33.264 50.0153 26.688L52.1273 27.408L51.0713 34.32H28.6553L28.0312 33.024C29.9993 30.864 29.9993 30.864 29.9993 28.896V6.144C29.9993 4.176 29.9993 4.176 28.0312 2.064L28.6073 0.719999H50.8793L51.4553 1.584L54.4792 17.376C56.4473 27.552 64.3193 35.808 69.9352 33.936C73.5352 32.736 74.1113 28.128 72.6233 24.576C70.5113 19.488 62.6393 18.768 58.4633 14.784C53.6633 10.224 55.7273 0 65.7113 0C72.8632 0 76.3193 3.984 76.3193 3.984L75.3113 9.408H72.9113C70.4633 2.256 65.2793 0.192 62.2073 1.2C58.9913 2.256 58.3193 6.72 61.9193 9.984C65.7592 13.44 75.5033 14.88 77.4232 21.456Z" fill="#202020"/>
<path d="M17.328 16.5127C23.328 29.7127 24.48 31.2967 26.352 32.9767L25.536 34.3207H18.048L17.376 32.9767C18.912 31.2967 18.912 31.1047 11.76 16.4167H10.848C7.296 20.1607 7.296 20.5447 7.296 25.6807V28.8967C7.296 31.0567 7.296 31.0567 9.264 33.0247L8.592 34.3207H0.72L0.0480001 33.0247C2.016 31.0567 2.016 31.0567 2.016 28.8967V6.2887C2.016 4.4647 2.016 4.4647 0 2.11271L0.72 0.720703H11.856C18.816 0.720703 23.376 3.88871 23.376 8.8327C23.376 14.8327 17.328 16.5127 17.328 16.5127ZM12.576 15.8407C16.608 15.8407 17.808 12.7207 17.616 8.78471C17.424 4.6567 14.496 1.2967 11.136 1.2967C7.296 1.2967 7.296 4.4647 7.296 6.2887V17.5687C7.296 19.1047 7.296 19.4407 9.744 16.7047L10.512 15.8407H12.576Z" fill="#202020"/>
<path d="M59.4531 72.3201V41.7021H72.6831C75.3151 41.7021 77.4991 42.1221 79.2351 42.9621C80.9711 43.7741 82.2591 44.9361 83.0991 46.4481C83.9671 47.9601 84.4011 49.7381 84.4011 51.7821C84.4011 53.9661 83.9111 55.8141 82.9311 57.3261C81.9511 58.8381 80.5791 59.9861 78.8151 60.7701C77.0791 61.5541 75.0351 61.9461 72.6831 61.9461H65.8371V56.6541H72.0531C73.8731 56.6541 75.2031 56.2201 76.0431 55.3521C76.8831 54.4841 77.3031 53.3781 77.3031 52.0341C77.3031 50.4381 76.8131 49.2901 75.8331 48.5901C74.8811 47.8621 73.6211 47.4981 72.0531 47.4981H65.4591L66.4251 46.5321V72.3201H59.4531Z" fill="#202020"/>
<path d="M25.0312 72.3201L35.6993 41.7021H45.4853L56.1532 72.3201H48.8033L41.9573 50.9001L40.7393 46.9521H40.4873L39.2693 50.9001L32.4233 72.3201H25.0312ZM33.8513 66.1881L35.4473 60.8541H45.7793L47.3333 66.1881H33.8513Z" fill="#202020"/>
<path d="M2.03125 72.3201V41.7021H9.00325V67.4061L7.91125 66.1881H22.8213V72.3201H2.03125Z" fill="#202020"/>
</svg>
