<svg width="164" height="31" viewBox="0 0 164 31" fill="none" xmlns="http://www.w3.org/2000/svg">
<path d="M131.535 30.618L141.867 0H152.955L163.329 30.618H155.013L148.713 9.828L147.579 5.922H147.285L146.151 9.828L139.851 30.618H131.535ZM141.027 24.864L142.833 18.858H151.989L153.795 24.864H141.027Z" fill="#202020"/>
<path d="M94.0977 30.618V0H106.362L109.764 12.768L111.234 19.908H111.57L112.998 12.768L116.316 0H128.58V30.618H120.978V17.598L121.188 7.35H120.81L118.584 16.38L114.72 30.618H108.084L104.178 16.254L101.952 7.35H101.574L101.784 17.64V30.618H94.0977Z" fill="#202020"/>
<path d="M62.7617 30.618V0H79.6457C80.9617 0 82.1517 0.125999 83.2157 0.377999C84.3077 0.602 85.2737 0.937999 86.1137 1.386C86.9817 1.834 87.7097 2.408 88.2977 3.108C88.8857 3.78 89.3197 4.578 89.5997 5.502C89.9077 6.398 90.0617 7.42 90.0617 8.568C90.0617 10.472 89.5437 12.082 88.5077 13.398C87.4997 14.686 86.1417 15.554 84.4337 16.002V16.296C85.5817 16.492 86.5197 16.842 87.2477 17.346C88.0037 17.85 88.5497 18.494 88.8857 19.278C89.2497 20.062 89.4317 21.028 89.4317 22.176V27.132C89.4317 27.692 89.4457 28.266 89.4737 28.854C89.5297 29.442 89.6837 30.03 89.9357 30.618H81.9137C81.7737 30.254 81.6617 29.764 81.5777 29.148C81.5217 28.532 81.4937 27.86 81.4937 27.132V23.478C81.4937 22.694 81.3677 22.05 81.1157 21.546C80.8637 21.014 80.4297 20.608 79.8137 20.328C79.2257 20.02 78.3857 19.866 77.2937 19.866H70.0697V13.776H77.5877C79.1837 13.776 80.3037 13.412 80.9477 12.684C81.6197 11.956 81.9557 11.046 81.9557 9.954C81.9557 9.282 81.8437 8.722 81.6197 8.274C81.4237 7.826 81.1297 7.462 80.7377 7.182C80.3457 6.902 79.8837 6.706 79.3517 6.594C78.8197 6.454 78.2317 6.384 77.5877 6.384H70.6997V30.618H62.7617Z" fill="#202020"/>
<path d="M35.2383 30.618V0H58.7583V6.636H41.5383L43.1763 4.956V25.62L41.5383 23.982H58.8843V30.618H35.2383ZM41.5383 18.228V12.054H56.6583V18.228H41.5383Z" fill="#202020"/>
<path d="M10.878 30.618L0 0H8.82L14.532 19.32L16.002 24.36H16.296L17.766 19.362L23.478 0H32.298L21.462 30.618H10.878Z" fill="#202020"/>
</svg>
