<svg width="200" height="200" viewBox="0 0 200 200" fill="none" xmlns="http://www.w3.org/2000/svg">
<rect width="200" height="200" rx="16" fill="#1D1D1D"/>
<path d="M131.852 129.631C128.945 134.221 124.89 136.516 119.688 136.516C115.786 136.516 112.382 135.101 109.475 132.27C106.644 129.363 105.229 125.959 105.229 122.057V62.5H123.704V108.172L153.425 62.5H175.343L131.852 129.631Z" fill="#FF5509"/>
<path d="M76.639 136.516V125.385H54.2621L47.0326 136.516H25L68.4915 69.3852C71.4751 64.7951 75.5679 62.5 80.7701 62.5C84.6717 62.5 88.0378 63.9535 90.8684 66.8606C93.7755 69.6912 95.229 73.0573 95.229 76.9589V103.237H76.639V90.8441L66.0817 106.91H95.229V136.516H76.639Z" fill="#FF5509"/>
</svg>
