<svg width="100" height="100" viewBox="0 0 100 100" fill="none" xmlns="http://www.w3.org/2000/svg">
<rect width="100" height="100" rx="25" fill="#FF5509"/>
<path d="M65.9259 64.8153C64.4723 67.1104 62.445 68.2579 59.844 68.2579C57.8932 68.2579 56.191 67.5503 54.7374 66.135C53.3221 64.6814 52.6145 62.9793 52.6145 61.0285V31.25H61.8521V54.0859L76.7127 31.25H87.6716L65.9259 64.8153Z" fill="#1D1D1D"/>
<path d="M38.3195 68.2579V62.6924H27.131L23.5163 68.2579H12.5L34.2457 34.6926C35.7375 32.3975 37.784 31.25 40.385 31.25C42.3359 31.25 44.0189 31.9768 45.4342 33.4303C46.8877 34.8456 47.6145 36.5286 47.6145 38.4795V51.6187H38.3195V45.422L33.0408 53.4548H47.6145V68.2579H38.3195Z" fill="#1D1D1D"/>
</svg>
