<svg width="252" height="126" viewBox="0 0 252 126" fill="none" xmlns="http://www.w3.org/2000/svg">
<path d="M177.344 114.258C172.396 122.07 165.495 125.977 156.641 125.977C150 125.977 144.206 123.568 139.258 118.75C134.44 113.802 132.031 108.008 132.031 101.367V0H163.477V77.7344L214.062 0H251.367L177.344 114.258Z" fill="black"/>
<path d="M87.8906 125.977V107.031H49.8047L37.5 125.977H0L74.0234 11.7188C79.1016 3.90625 86.0677 0 94.9219 0C101.562 0 107.292 2.47396 112.109 7.42188C117.057 12.2396 119.531 17.9688 119.531 24.6094V69.3359H87.8906V48.2422L69.9219 75.5859H119.531V125.977H87.8906Z" fill="black"/>
</svg>
