<svg width="1000" height="600" viewBox="0 0 1000 600" fill="none" xmlns="http://www.w3.org/2000/svg">
<path d="M173.611 442.07C219.631 442.07 495.113 442.138 755.529 443.745C784.345 443.923 874.904 443.745 906.634 443.745C978.972 443.745 983.795 387.483 983.795 369.8C983.795 352.117 989.903 257.275 977.365 236.377C958.075 204.227 933.962 204.227 896.989 191.367C838.384 170.982 813.035 164.516 795.716 209.049C778.398 253.583 872.5 260.477 887.344 292.64C902.189 324.803 898.147 365.749 866.447 360.155C839.119 355.333 681.687 256.272 610.853 209.049C533.693 157.609 498.328 165.647 472.503 199.609C454.47 223.324 413.13 284.602 395.447 313.537C381.905 335.697 411.522 384.268 356.867 384.268C327.696 384.268 287.993 387.483 262.024 379.445C224.77 367.915 181.649 334.435 154.321 316.752C110.919 288.668 126.994 258.882 151.106 258.882H271.669C313.464 258.882 350.437 234.77 350.437 199.403C350.437 175.292 337.577 156.002 303.82 156.001C261.38 155.999 200.939 156.001 151.107 156.001C48.2258 156.001 10.9064 229.346 16.076 271.742C24.1128 337.649 98.2803 334.272 130.208 361.762C157.536 385.291 127.591 442.07 173.611 442.07Z" stroke="#FF1800" stroke-width="16"/>
</svg>
