<svg xmlns="http://www.w3.org/2000/svg" viewBox="0 0 560 420" fill="none">
  <!--
    TT Circuit Assen, Netherlands — Hand-crafted path
    Going clockwise from S/F line (top-right)
    Key Sections:
      [A] S/F Main Straight (top, going left)
      [B] T1 Geert Timmer (sweeping right going down-left)
      [C] De Strubben T2-T4 (tight S-chicane, left side)
      [D] Haarbocht T5 (right hander)
      [E] Assen Corner T6-T7 (complex right)
      [F] Ramshoek T8-T9 (very tight hairpin)
      [G] Back section going right
      [H] Madijk / Final complex
      [I] Return straight up to S/F
  -->
  <path
    id="assen-track"
    d="
      M 508,88
      L 80,88

      C 42,88 22,108 22,152
      C 22,192 40,215 65,220

      L 82,222
      C 100,224 112,214 110,198
      C 108,182 95,174 81,178
      C 67,182 60,196 65,211
      C 70,227 84,235 99,232

      L 114,228
      C 130,223 140,210 138,195
      C 136,178 122,170 107,173
      C 93,177 85,191 88,207
      C 92,225 106,234 121,231

      L 138,226
      C 155,221 165,207 162,191
      C 158,174 144,166 128,169

      C 111,172 102,186 104,202
      C 107,220 120,230 136,228

      C 153,225 164,211 162,194
      C 160,176 146,167 129,170
      C 112,173 103,188 106,205
      C 110,223 124,233 140,231
      C 158,228 170,214 168,196
      C 166,178 151,168 133,171
      C 115,174 105,189 107,207
      C 109,226 123,237 140,235

      C 158,233 172,219 172,200
      C 172,180 158,165 140,165
      C 120,165 106,180 106,200
      C 106,222 120,238 140,240
      C 162,242 178,228 180,208
      C 182,186 168,170 148,168
      C 128,166 112,180 110,200
      C 108,222 122,240 143,244

      L 165,248
      C 188,250 206,238 208,216
      C 210,194 196,178 174,175
      C 152,172 136,186 133,208
      C 130,232 144,252 166,257

      L 196,262
      C 222,267 244,256 248,232
      C 252,208 238,188 215,182
      C 192,176 172,188 168,212
      C 164,238 180,262 205,268

      L 230,272
      C 262,278 290,264 295,238
      C 300,212 282,190 255,184
      L 227,178

      C 356,176 398,172 430,168
      C 462,164 480,148 480,120
      C 480,100 496,90 508,88
      Z
    "
    stroke="#FF5509"
    stroke-width="14"
    stroke-linejoin="round"
    stroke-linecap="round"
  />
</svg>
