<svg width="1880" height="1086" viewBox="0 0 1880 1086" fill="none" xmlns="http://www.w3.org/2000/svg">

  <!-- Depth layer — static, gives 3D extrusion look -->
  <path id="track-depth" fill-rule="evenodd" clip-rule="evenodd" d="M636.705 345.644C604.914 264.587 573.256 185.685 543.38 104.285C541.8 99.9809 550.127 91.9137 556.86 89.9649C600.689 77.2791 632.004 68.9147 674.813 57.2964C686.941 54.0049 701.895 56.0067 710.328 57.744C757.89 67.5426 802.268 78.071 846.945 87.429C855.579 89.2374 865.512 96.0974 869.24 100.854C873.461 106.241 875.67 114.022 873.906 119.65C871.868 126.154 864.622 132.974 856.537 137.998C847.339 143.714 835.817 148.021 823.355 151.125C812.659 153.789 798.682 156.445 788.099 154.705C774.487 152.467 760.827 145.66 750.769 139.191C737.323 130.544 729.715 118.179 715.772 110.7C709.322 107.24 698.646 106.026 689.589 106.374C683.092 106.623 675.925 109.311 672.739 112.191C668.666 115.874 669.824 124.035 674.035 128.153C689.852 143.621 705.184 157.723 726.919 172.009C746.828 185.094 775.199 194.304 791.21 209.003C840.032 253.826 889.55 297.975 934.308 343.854C963.864 374.151 987.711 405.6 1015.45 436.49C1035.76 459.103 1055.4 479.637 1075.59 502.125C1083.42 510.838 1078.33 520.437 1073.26 527.633C1067.83 535.331 1059.54 544.222 1058.48 552.843C1057.12 563.912 1060.99 575.694 1070.15 585.213C1080.69 596.18 1098.59 605.94 1117.85 612.959C1164.61 630.006 1212.6 642.078 1261.46 658.009C1278.25 663.481 1288.16 670.701 1293.09 677.997C1297.42 684.41 1299.81 693.836 1294.39 699.627C1263.68 732.413 1243.86 763.609 1218.43 796.141C1188.54 834.38 1159.01 871.332 1125.88 907.273C1119.12 914.615 1126.62 930.166 1133.92 933.677C1178 954.865 1219.01 967.293 1264.32 990.213C1270.51 993.348 1279.84 999.76 1280.65 1004.38C1281.92 1011.69 1281.33 1020.65 1274.43 1026.46C1263.36 1035.77 1243.42 1044.37 1224.65 1049.14C1205.05 1054.11 1180.82 1055.94 1159.32 1055.7C1144.87 1055.54 1129.55 1052.03 1116.81 1047.94C1102.93 1043.48 1088.58 1037.66 1079.48 1030.04C1037.07 994.503 995.838 956.725 962.305 918.461C955.051 910.184 957.013 899.807 957.121 890.417C957.704 839.74 957.271 788.489 964.379 738.263C965.913 727.428 976.915 717.596 983.044 707.235C987.976 698.899 995.101 690.764 997.562 682.174C1000.29 672.665 999.832 662.641 998.599 652.937C995.685 630.022 995.889 605.813 985.118 584.318C979.644 573.393 966.671 561.919 949.862 555.677C875.075 527.908 782.699 509.872 710.328 482.285C700.78 478.645 703.915 468.709 704.106 461.998C704.261 456.576 712.95 453.267 710.328 448.572C706.728 442.128 693.566 437.219 685.701 431.119C677.666 424.888 669.766 415.143 665.48 407.849C653.521 387.496 645.009 366.819 636.705 345.644Z" stroke="#B0B0B0" stroke-width="20" stroke-linejoin="round"/>

  <!-- Base layer — static white/light track surface -->
  <path id="track-base" fill-rule="evenodd" clip-rule="evenodd" d="M636.701 341.644C604.91 260.587 573.252 181.685 543.376 100.285C541.796 95.9809 550.123 87.9137 556.856 85.9649C600.685 73.2791 632 64.9147 674.809 53.2964C686.937 50.0049 701.891 52.0067 710.324 53.744C757.886 63.5426 802.265 74.071 846.942 83.429C855.575 85.2374 865.508 92.0974 869.236 96.8544C873.457 102.241 875.666 110.022 873.902 115.65C871.864 122.154 864.618 128.974 856.533 133.998C847.335 139.714 835.813 144.021 823.351 147.125C812.655 149.789 798.678 152.445 788.095 150.705C774.483 148.467 760.823 141.66 750.765 135.191C737.319 126.544 729.712 114.179 715.768 106.7C709.318 103.24 698.642 102.026 689.585 102.374C683.088 102.623 675.921 105.311 672.735 108.191C668.662 111.874 669.82 120.035 674.031 124.153C689.848 139.621 705.18 153.723 726.915 168.009C746.824 181.094 775.195 190.304 791.206 205.003C840.028 249.826 889.546 293.975 934.304 339.854C963.861 370.151 987.707 401.6 1015.45 432.49C1035.75 455.103 1055.4 475.637 1075.59 498.125C1083.41 506.838 1078.33 516.437 1073.25 523.633C1067.83 531.331 1059.54 540.222 1058.48 548.843C1057.12 559.912 1060.99 571.694 1070.14 581.213C1080.69 592.18 1098.59 601.94 1117.84 608.959C1164.61 626.006 1212.59 638.078 1261.46 654.009C1278.24 659.481 1288.16 666.701 1293.09 673.997C1297.42 680.41 1299.81 689.836 1294.38 695.627C1263.68 728.413 1243.86 759.609 1218.43 792.141C1188.54 830.38 1159.01 867.332 1125.88 903.273C1119.11 910.615 1126.61 926.166 1133.92 929.677C1178 950.865 1219.01 963.293 1264.31 986.213C1270.51 989.348 1279.84 995.76 1280.64 1000.38C1281.91 1007.69 1281.33 1016.65 1274.42 1022.46C1263.36 1031.77 1243.41 1040.37 1224.65 1045.14C1205.05 1050.11 1180.81 1051.94 1159.32 1051.7C1144.87 1051.54 1129.54 1048.03 1116.81 1043.94C1102.93 1039.48 1088.57 1033.66 1079.48 1026.04C1037.07 990.503 995.834 952.725 962.302 914.461C955.048 906.184 957.009 895.807 957.117 886.417C957.7 835.74 957.267 784.489 964.375 734.263C965.909 723.428 976.911 713.596 983.04 703.235C987.972 694.899 995.097 686.764 997.558 678.174C1000.28 668.665 999.829 658.641 998.595 648.937C995.681 626.022 995.885 601.813 985.114 580.318C979.64 569.393 966.667 557.919 949.858 551.677C875.071 523.908 782.695 505.872 710.324 478.285C700.776 474.645 703.911 464.709 704.102 457.998C704.257 452.576 712.946 449.267 710.324 444.572C706.724 438.128 693.562 433.219 685.697 427.119C677.662 420.888 669.762 411.143 665.476 403.849C653.517 383.496 645.006 362.819 636.701 341.644Z" stroke="#EAEAEA" stroke-width="20" stroke-linejoin="round"/>

  <!-- Progress + track-path: identical path — driven by JS dashoffset -->
  <path id="track-progress" fill-rule="evenodd" clip-rule="evenodd" d="M636.701 341.644C604.91 260.587 573.252 181.685 543.376 100.285C541.796 95.9809 550.123 87.9137 556.856 85.9649C600.685 73.2791 632 64.9147 674.809 53.2964C686.937 50.0049 701.891 52.0067 710.324 53.744C757.886 63.5426 802.265 74.071 846.942 83.429C855.575 85.2374 865.508 92.0974 869.236 96.8544C873.457 102.241 875.666 110.022 873.902 115.65C871.864 122.154 864.618 128.974 856.533 133.998C847.335 139.714 835.813 144.021 823.351 147.125C812.655 149.789 798.678 152.445 788.095 150.705C774.483 148.467 760.823 141.66 750.765 135.191C737.319 126.544 729.712 114.179 715.768 106.7C709.318 103.24 698.642 102.026 689.585 102.374C683.088 102.623 675.921 105.311 672.735 108.191C668.662 111.874 669.82 120.035 674.031 124.153C689.848 139.621 705.18 153.723 726.915 168.009C746.824 181.094 775.195 190.304 791.206 205.003C840.028 249.826 889.546 293.975 934.304 339.854C963.861 370.151 987.707 401.6 1015.45 432.49C1035.75 455.103 1055.4 475.637 1075.59 498.125C1083.41 506.838 1078.33 516.437 1073.25 523.633C1067.83 531.331 1059.54 540.222 1058.48 548.843C1057.12 559.912 1060.99 571.694 1070.14 581.213C1080.69 592.18 1098.59 601.94 1117.84 608.959C1164.61 626.006 1212.59 638.078 1261.46 654.009C1278.24 659.481 1288.16 666.701 1293.09 673.997C1297.42 680.41 1299.81 689.836 1294.38 695.627C1263.68 728.413 1243.86 759.609 1218.43 792.141C1188.54 830.38 1159.01 867.332 1125.88 903.273C1119.11 910.615 1126.61 926.166 1133.92 929.677C1178 950.865 1219.01 963.293 1264.31 986.213C1270.51 989.348 1279.84 995.76 1280.64 1000.38C1281.91 1007.69 1281.33 1016.65 1274.42 1022.46C1263.36 1031.77 1243.41 1040.37 1224.65 1045.14C1205.05 1050.11 1180.81 1051.94 1159.32 1051.7C1144.87 1051.54 1129.54 1048.03 1116.81 1043.94C1102.93 1039.48 1088.57 1033.66 1079.48 1026.04C1037.07 990.503 995.834 952.725 962.302 914.461C955.048 906.184 957.009 895.807 957.117 886.417C957.7 835.74 957.267 784.489 964.375 734.263C965.909 723.428 976.911 713.596 983.04 703.235C987.972 694.899 995.097 686.764 997.558 678.174C1000.28 668.665 999.829 658.641 998.595 648.937C995.681 626.022 995.885 601.813 985.114 580.318C979.64 569.393 966.667 557.919 949.858 551.677C875.071 523.908 782.695 505.872 710.324 478.285C700.776 474.645 703.911 464.709 704.102 457.998C704.257 452.576 712.946 449.267 710.324 444.572C706.724 438.128 693.562 433.219 685.697 427.119C677.662 420.888 669.762 411.143 665.476 403.849C653.517 383.496 645.006 362.819 636.701 341.644Z" stroke="#FF5509" stroke-width="16" stroke-linejoin="round"/>

</svg>
